<svg xmlns="http://www.w3.org/2000/svg" xmlns:xlink="http://www.w3.org/1999/xlink" version="1.1" class="marks" width="652" height="444" viewBox="0 0 652 444"><rect width="652" height="444" fill="white"/><g fill="none" stroke-miterlimit="10" transform="translate(75,32)"><g class="mark-group role-frame root" role="graphics-object" aria-roledescription="group mark container"><g transform="translate(0,0)"><path class="background" aria-hidden="true" d="M0.5,0.5h500v400h-500Z" stroke="#ddd"/><g><g class="mark-group role-axis" aria-hidden="true"><g transform="translate(0.5,0.5)"><path class="background" aria-hidden="true" d="M0,0h0v0h0Z" pointer-events="none"/><g><g class="mark-rule role-axis-grid" pointer-events="none"><line transform="translate(0,292)" x2="500" y2="0" stroke="#ddd" stroke-width="1" opacity="1"/><line transform="translate(0,234)" x2="500" y2="0" stroke="#ddd" stroke-width="1" opacity="1"/><line transform="translate(0,176)" x2="500" y2="0" stroke="#ddd" stroke-width="1" opacity="1"/><line transform="translate(0,321)" x2="500" y2="0" stroke="#ddd" stroke-width="1" opacity="1"/><line transform="translate(0,263)" x2="500" y2="0" stroke="#ddd" stroke-width="1" opacity="1"/><line transform="translate(0,205)" x2="500" y2="0" stroke="#ddd" stroke-width="1" opacity="1"/><line transform="translate(0,148)" x2="500" y2="0" stroke="#ddd" stroke-width="1" opacity="1"/><line transform="translate(0,350)" x2="500" y2="0" stroke="#ddd" stroke-width="1" opacity="1"/><line transform="translate(0,119)" x2="500" y2="0" stroke="#ddd" stroke-width="1" opacity="1"/><line transform="translate(0,90)" x2="500" y2="0" stroke="#ddd" stroke-width="1" opacity="1"/><line transform="translate(0,61)" x2="500" y2="0" stroke="#ddd" stroke-width="1" opacity="1"/><line transform="translate(0,378)" x2="500" y2="0" stroke="#ddd" stroke-width="1" opacity="1"/><line transform="translate(0,32)" x2="500" y2="0" stroke="#ddd" stroke-width="1" opacity="1"/><line transform="translate(0,3)" x2="500" y2="0" stroke="#ddd" stroke-width="1" opacity="1"/></g></g><path class="foreground" aria-hidden="true" d="" pointer-events="none" display="none"/></g></g><g class="mark-group role-axis" role="graphics-symbol" aria-roledescription="axis" aria-label="X-axis for a discrete scale with 21 values: -8WnlaU8BTk, 85UinCrJc3Q, AMov3sIKggk, HNZb5jhftN0, NlVJ2YI2m38, ending with xt_mecnVIcg"><g transform="translate(0.5,400.5)"><path class="background" aria-hidden="true" d="M0,0h0v0h0Z" pointer-events="none"/><g><g class="mark-rule role-axis-tick" pointer-events="none"><line transform="translate(11,0)" x2="0" y2="5" stroke="#888" stroke-width="1" opacity="1"/><line transform="translate(35,0)" x2="0" y2="5" stroke="#888" stroke-width="1" opacity="1"/><line transform="translate(59,0)" x2="0" y2="5" stroke="#888" stroke-width="1" opacity="1"/><line transform="translate(83,0)" x2="0" y2="5" stroke="#888" stroke-width="1" opacity="1"/><line transform="translate(107,0)" x2="0" y2="5" stroke="#888" stroke-width="1" opacity="1"/><line transform="translate(130,0)" x2="0" y2="5" stroke="#888" stroke-width="1" opacity="1"/><line transform="translate(154,0)" x2="0" y2="5" stroke="#888" stroke-width="1" opacity="1"/><line transform="translate(178,0)" x2="0" y2="5" stroke="#888" stroke-width="1" opacity="1"/><line transform="translate(202,0)" x2="0" y2="5" stroke="#888" stroke-width="1" opacity="1"/><line transform="translate(226,0)" x2="0" y2="5" stroke="#888" stroke-width="1" opacity="1"/><line transform="translate(250,0)" x2="0" y2="5" stroke="#888" stroke-width="1" opacity="1"/><line transform="translate(273,0)" x2="0" y2="5" stroke="#888" stroke-width="1" opacity="1"/><line transform="translate(297,0)" x2="0" y2="5" stroke="#888" stroke-width="1" opacity="1"/><line transform="translate(321,0)" x2="0" y2="5" stroke="#888" stroke-width="1" opacity="1"/><line transform="translate(345,0)" x2="0" y2="5" stroke="#888" stroke-width="1" opacity="1"/><line transform="translate(369,0)" x2="0" y2="5" stroke="#888" stroke-width="1" opacity="1"/><line transform="translate(392,0)" x2="0" y2="5" stroke="#888" stroke-width="1" opacity="1"/><line transform="translate(416,0)" x2="0" y2="5" stroke="#888" stroke-width="1" opacity="1"/><line transform="translate(440,0)" x2="0" y2="5" stroke="#888" stroke-width="1" opacity="1"/><line transform="translate(464,0)" x2="0" y2="5" stroke="#888" stroke-width="1" opacity="1"/><line transform="translate(488,0)" x2="0" y2="5" stroke="#888" stroke-width="1" opacity="1"/></g><g class="mark-rule role-axis-domain" pointer-events="none"><line transform="translate(0,0)" x2="500" y2="0" stroke="#888" stroke-width="1" opacity="1"/></g></g><path class="foreground" aria-hidden="true" d="" pointer-events="none" display="none"/></g></g><g class="mark-group role-axis" role="graphics-symbol" aria-roledescription="axis" aria-label="Y-axis titled 'Y label' for a linear scale with values from −18,726 to 50,564"><g transform="translate(0.5,0.5)"><path class="background" aria-hidden="true" d="M0,0h0v0h0Z" pointer-events="none"/><g><g class="mark-rule role-axis-tick" pointer-events="none"><line transform="translate(0,292)" x2="-5" y2="0" stroke="#888" stroke-width="1" opacity="1"/><line transform="translate(0,234)" x2="-5" y2="0" stroke="#888" stroke-width="1" opacity="1"/><line transform="translate(0,176)" x2="-5" y2="0" stroke="#888" stroke-width="1" opacity="1"/><line transform="translate(0,321)" x2="-5" y2="0" stroke="#888" stroke-width="1" opacity="1"/><line transform="translate(0,263)" x2="-5" y2="0" stroke="#888" stroke-width="1" opacity="1"/><line transform="translate(0,205)" x2="-5" y2="0" stroke="#888" stroke-width="1" opacity="1"/><line transform="translate(0,148)" x2="-5" y2="0" stroke="#888" stroke-width="1" opacity="1"/><line transform="translate(0,350)" x2="-5" y2="0" stroke="#888" stroke-width="1" opacity="1"/><line transform="translate(0,119)" x2="-5" y2="0" stroke="#888" stroke-width="1" opacity="1"/><line transform="translate(0,90)" x2="-5" y2="0" stroke="#888" stroke-width="1" opacity="1"/><line transform="translate(0,61)" x2="-5" y2="0" stroke="#888" stroke-width="1" opacity="1"/><line transform="translate(0,378)" x2="-5" y2="0" stroke="#888" stroke-width="1" opacity="1"/><line transform="translate(0,32)" x2="-5" y2="0" stroke="#888" stroke-width="1" opacity="1"/><line transform="translate(0,3)" x2="-5" y2="0" stroke="#888" stroke-width="1" opacity="1"/></g><g class="mark-text role-axis-label" pointer-events="none"><text text-anchor="end" transform="translate(-7,295.8973315586106)" font-family="sans-serif" font-size="14px" fill="#000" opacity="1">0</text><text text-anchor="end" transform="translate(-7,238.16918235558643)" font-family="sans-serif" font-size="14px" fill="#000" opacity="1">10,000</text><text text-anchor="end" transform="translate(-7,180.44103315256223)" font-family="sans-serif" font-size="14px" fill="#000" opacity="1">20,000</text><text text-anchor="end" transform="translate(-7,324.76140616012265)" font-family="sans-serif" font-size="14px" fill="#000" opacity="1">−5,000</text><text text-anchor="end" transform="translate(-7,267.0332569570985)" font-family="sans-serif" font-size="14px" fill="#000" opacity="1">5,000</text><text text-anchor="end" transform="translate(-7,209.3051077540743)" font-family="sans-serif" font-size="14px" fill="#000" opacity="1">15,000</text><text text-anchor="end" transform="translate(-7,151.5769585510501)" font-family="sans-serif" font-size="14px" fill="#000" opacity="1">25,000</text><text text-anchor="end" transform="translate(-7,353.6254807616348)" font-family="sans-serif" font-size="14px" fill="#000" opacity="1">−10,000</text><text text-anchor="end" transform="translate(-7,122.71288394953802)" font-family="sans-serif" font-size="14px" fill="#000" opacity="1">30,000</text><text text-anchor="end" transform="translate(-7,93.84880934802591)" font-family="sans-serif" font-size="14px" fill="#000" opacity="1">35,000</text><text text-anchor="end" transform="translate(-7,64.98473474651382)" font-family="sans-serif" font-size="14px" fill="#000" opacity="1">40,000</text><text text-anchor="end" transform="translate(-7,382.4895553631469)" font-family="sans-serif" font-size="14px" fill="#000" opacity="1">−15,000</text><text text-anchor="end" transform="translate(-7,36.12066014500174)" font-family="sans-serif" font-size="14px" fill="#000" opacity="1">45,000</text><text text-anchor="end" transform="translate(-7,7.256585543489576)" font-family="sans-serif" font-size="14px" fill="#000" opacity="1">50,000</text></g><g class="mark-rule role-axis-domain" pointer-events="none"><line transform="translate(0,400)" x2="0" y2="-400" stroke="#888" stroke-width="1" opacity="1"/></g><g class="mark-text role-axis-title" pointer-events="none"><text text-anchor="middle" transform="translate(-61.99609375,200) rotate(-90) translate(0,-3)" font-family="sans-serif" font-size="16px" font-weight="bold" fill="#000" opacity="1">Y label</text></g></g><path class="foreground" aria-hidden="true" d="" pointer-events="none" display="none"/></g></g><g class="mark-rect role-mark marks" clip-path="url(#clip1)" role="graphics-object" aria-roledescription="rect mark container"><path aria-label="quantity: y1; x: d5HkawVDFWs; value: 186" role="graphics-symbol" aria-roledescription="bar" d="M334.5238095238096,290.817815168514h21.42857142857143v1.0737435751762519h-21.42857142857143Z" fill="#4c78a8"/><path aria-label="quantity: y1; x: qOJagwP9AH4; value: 1396" role="graphics-symbol" aria-roledescription="bar" d="M405.95238095238096,283.8269363000278h21.42857142857143v8.058849628742166h-21.42857142857143Z" fill="#4c78a8"/><path aria-label="quantity: y1; x: ayNtUoUd_Mg; value: 1661" role="graphics-symbol" aria-roledescription="bar" d="M286.9047619047619,282.1239558985386h21.42857142857143v9.588645582622348h-21.42857142857143Z" fill="#4c78a8"/><path aria-label="quantity: y1; x: QvW1NO_cgJc; value: 2849" role="graphics-symbol" aria-roledescription="bar" d="M120.23809523809526,275.09844014053056h21.42857142857143v16.446749707941592h-21.42857142857143Z" fill="#4c78a8"/><path aria-label="quantity: y1; x: TaIHXYbBBXM; value: 2970" role="graphics-symbol" aria-roledescription="bar" d="M167.8571428571429,274.40570235009426h21.42857142857143v17.145260313298195h-21.42857142857143Z" fill="#4c78a8"/><path aria-label="quantity: y1; x: xTfmtxO9f_w; value: 2923" role="graphics-symbol" aria-roledescription="bar" d="M453.5714285714286,274.7116615408703h21.42857142857143v16.873938012043993h-21.42857142857143Z" fill="#4c78a8"/><path aria-label="quantity: y1; x: w8NjrSOPjY8; value: 2873" role="graphics-symbol" aria-roledescription="bar" d="M429.76190476190476,275.17348673449453h21.42857142857143v16.585297266028817h-21.42857142857143Z" fill="#4c78a8"/><path aria-label="quantity: y1; x: 85UinCrJc3Q; value: 1122" role="graphics-symbol" aria-roledescription="bar" d="M25.000000000000014,285.31632254946584h21.42857142857143v6.477098340579289h-21.42857142857143Z" fill="#4c78a8"/><path aria-label="quantity: y1; x: YieB0alU9p4; value: 9240" role="graphics-symbol" aria-roledescription="bar" d="M263.09523809523813,238.4526110264508h21.42857142857143v53.34080986359433h-21.42857142857143Z" fill="#4c78a8"/><path aria-label="quantity: y1; x: HNZb5jhftN0; value: 10898" role="graphics-symbol" aria-roledescription="bar" d="M72.61904761904763,228.37327617560277h21.42857142857143v62.91213700145579h-21.42857142857143Z" fill="#4c78a8"/><path aria-label="quantity: y1; x: SsEAuxP6s6Y; value: 9246" role="graphics-symbol" aria-roledescription="bar" d="M144.04761904761907,237.50009656460094h21.42857142857143v53.37544675311614h-21.42857142857143Z" fill="#4c78a8"/><path aria-label="quantity: y1; x: eVa46zsrO-M; value: 2369" role="graphics-symbol" aria-roledescription="bar" d="M358.33333333333337,278.16380486321117h21.42857142857143v13.675798546196404h-21.42857142857143Z" fill="#4c78a8"/><path aria-label="quantity: y1; x: TmUsviNlCQ8; value: 2706" role="graphics-symbol" aria-roledescription="bar" d="M191.66666666666669,275.5660381490751h21.42857142857143v15.621237174338319h-21.42857142857143Z" fill="#4c78a8"/><path aria-label="quantity: y1; x: gkdcWOoMlIw; value: 2276" role="graphics-symbol" aria-roledescription="bar" d="M382.14285714285717,278.7179950955602h21.42857142857143v13.138926758608306h-21.42857142857143Z" fill="#4c78a8"/><path aria-label="quantity: y1; x: VfR-cbMKII0; value: 1916" role="graphics-symbol" aria-roledescription="bar" d="M215.47619047619048,279.9880143780267h21.42857142857143v11.060713387299415h-21.42857142857143Z" fill="#4c78a8"/><path aria-label="quantity: y1; x: W2H7ynuuolM; value: 2641" role="graphics-symbol" aria-roledescription="bar" d="M239.2857142857143,276.5185526109249h21.42857142857143v15.246004204518727h-21.42857142857143Z" fill="#4c78a8"/><path aria-label="quantity: y1; x: ci-GyHAr-5o; value: 13273" role="graphics-symbol" aria-roledescription="bar" d="M310.7142857142857,215.0611649693854h21.42857142857143v76.62257243717403h-21.42857142857143Z" fill="#4c78a8"/><path aria-label="quantity: y1; x: AMov3sIKggk; value: 35473" role="graphics-symbol" aria-roledescription="bar" d="M48.809523809523824,86.62180580757686h21.42857142857143v204.7790636678877h-21.42857142857143Z" fill="#4c78a8"/><path aria-label="quantity: y1; x: NlVJ2YI2m38; value: 2756" role="graphics-symbol" aria-roledescription="bar" d="M96.42857142857144,275.3870808865457h21.42857142857143v15.909877920353438h-21.42857142857143Z" fill="#4c78a8"/><path aria-label="quantity: y1; x: -8WnlaU8BTk; value: 19608" role="graphics-symbol" aria-roledescription="bar" d="M1.190476190476204,178.40956304038534h21.42857142857143v113.19335495728981h-21.42857142857143Z" fill="#4c78a8"/><path aria-label="quantity: y1; x: xt_mecnVIcg; value: 509" role="graphics-symbol" aria-roledescription="bar" d="M477.3809523809524,288.94165031941577h21.42857142857143v2.9383627944339423h-21.42857142857143Z" fill="#4c78a8"/><path aria-label="quantity: y2; x: d5HkawVDFWs; value: 1" role="graphics-symbol" aria-roledescription="bar" d="M334.5238095238096,291.89155874369027h21.42857142857143v0.005772814920305791h-21.42857142857143Z" fill="#f58518"/><path aria-label="quantity: y2; x: qOJagwP9AH4; value: 2" role="graphics-symbol" aria-roledescription="bar" d="M405.95238095238096,291.88578592876996h21.42857142857143v0.011545629840611582h-21.42857142857143Z" fill="#f58518"/><path aria-label="quantity: y2; x: ayNtUoUd_Mg; value: 32" role="graphics-symbol" aria-roledescription="bar" d="M286.9047619047619,291.71260148116096h21.42857142857143v0.18473007744961478h-21.42857142857143Z" fill="#f58518"/><path aria-label="quantity: y2; x: QvW1NO_cgJc; value: 61" role="graphics-symbol" aria-roledescription="bar" d="M120.23809523809526,291.54518984847215h21.42857142857143v0.3521417101384259h-21.42857142857143Z" fill="#f58518"/><path aria-label="quantity: y2; x: TaIHXYbBBXM; value: 60" role="graphics-symbol" aria-roledescription="bar" d="M167.8571428571429,291.55096266339245h21.42857142857143v0.3463688952181201h-21.42857142857143Z" fill="#f58518"/><path aria-label="quantity: y2; x: xTfmtxO9f_w; value: 54" role="graphics-symbol" aria-roledescription="bar" d="M453.5714285714286,291.5855995529143h21.42857142857143v0.31173200569628534h-21.42857142857143Z" fill="#f58518"/><path aria-label="quantity: y2; x: w8NjrSOPjY8; value: 24" role="graphics-symbol" aria-roledescription="bar" d="M429.76190476190476,291.75878400052335h21.42857142857143v0.1385475580872253h-21.42857142857143Z" fill="#f58518"/><path aria-label="quantity: y2; x: 85UinCrJc3Q; value: 18" role="graphics-symbol" aria-roledescription="bar" d="M25.000000000000014,291.7934208900451h21.42857142857143v0.1039106685654474h-21.42857142857143Z" fill="#f58518"/><path aria-label="quantity: y2; x: YieB0alU9p4; value: 18" role="graphics-symbol" aria-roledescription="bar" d="M263.09523809523813,291.7934208900451h21.42857142857143v0.1039106685654474h-21.42857142857143Z" fill="#f58518"/><path aria-label="quantity: y2; x: HNZb5jhftN0; value: 106" role="graphics-symbol" aria-roledescription="bar" d="M72.61904761904763,291.28541317705856h21.42857142857143v0.6119183815520159h-21.42857142857143Z" fill="#f58518"/><path aria-label="quantity: y2; x: SsEAuxP6s6Y; value: 177" role="graphics-symbol" aria-roledescription="bar" d="M144.04761904761907,290.8755433177171h21.42857142857143v1.0217882408934997h-21.42857142857143Z" fill="#f58518"/><path aria-label="quantity: y2; x: eVa46zsrO-M; value: 10" role="graphics-symbol" aria-roledescription="bar" d="M358.33333333333337,291.8396034094076h21.42857142857143v0.05772814920300107h-21.42857142857143Z" fill="#f58518"/><path aria-label="quantity: y2; x: TmUsviNlCQ8; value: 123" role="graphics-symbol" aria-roledescription="bar" d="M191.66666666666669,291.1872753234134h21.42857142857143v0.7100562351971575h-21.42857142857143Z" fill="#f58518"/><path aria-label="quantity: y2; x: gkdcWOoMlIw; value: 7" role="graphics-symbol" aria-roledescription="bar" d="M382.14285714285717,291.8569218541685h21.42857142857143v0.040409704442083694h-21.42857142857143Z" fill="#f58518"/><path aria-label="quantity: y2; x: VfR-cbMKII0; value: 147" role="graphics-symbol" aria-roledescription="bar" d="M215.47619047619048,291.04872776532613h21.42857142857143v0.8486037932844397h-21.42857142857143Z" fill="#f58518"/><path aria-label="quantity: y2; x: W2H7ynuuolM; value: 23" role="graphics-symbol" aria-roledescription="bar" d="M239.2857142857143,291.76455681544365h21.42857142857143v0.1327747431669195h-21.42857142857143Z" fill="#f58518"/><path aria-label="quantity: y2; x: ci-GyHAr-5o; value: 37" role="graphics-symbol" aria-roledescription="bar" d="M310.7142857142857,291.68373740655943h21.42857142857143v0.21359415205114374h-21.42857142857143Z" fill="#f58518"/><path aria-label="quantity: y2; x: AMov3sIKggk; value: 86" role="graphics-symbol" aria-roledescription="bar" d="M48.809523809523824,291.40086947546456h21.42857142857143v0.4964620831460138h-21.42857142857143Z" fill="#f58518"/><path aria-label="quantity: y2; x: NlVJ2YI2m38; value: 104" role="graphics-symbol" aria-roledescription="bar" d="M96.42857142857144,291.2969588068991h21.42857142857143v0.6003727517114612h-21.42857142857143Z" fill="#f58518"/><path aria-label="quantity: y2; x: -8WnlaU8BTk; value: 51" role="graphics-symbol" aria-roledescription="bar" d="M1.190476190476204,291.60291799767515h21.42857142857143v0.2944135609354248h-21.42857142857143Z" fill="#f58518"/><path aria-label="quantity: y2; x: xt_mecnVIcg; value: 3" role="graphics-symbol" aria-roledescription="bar" d="M477.3809523809524,291.8800131138497h21.42857142857143v0.01731844476086053h-21.42857142857143Z" fill="#f58518"/></g><g class="mark-group role-legend" role="graphics-symbol" aria-roledescription="legend" aria-label="Symbol legend titled 'Quantities' for fill color with 2 values: y1, y2"><g transform="translate(518,0)"><path class="background" aria-hidden="true" d="M0,0h54v40h-54Z" pointer-events="none"/><g><g class="mark-group role-legend-entry"><g transform="translate(0,16)"><path class="background" aria-hidden="true" d="M0,0h0v0h0Z" pointer-events="none"/><g><g class="mark-group role-scope" role="graphics-object" aria-roledescription="group mark container"><g transform="translate(0,0)"><path class="background" aria-hidden="true" d="M0,0h26.5615234375v11h-26.5615234375Z" pointer-events="none" opacity="1"/><g><g class="mark-symbol role-legend-symbol" pointer-events="none"><path transform="translate(6,6)" d="M-5,-5h10v10h-10Z" fill="#4c78a8" stroke-width="1.5" opacity="1"/></g><g class="mark-text role-legend-label" pointer-events="none"><text text-anchor="start" transform="translate(16,9)" font-family="sans-serif" font-size="10px" fill="#000" opacity="1">y1</text></g></g><path class="foreground" aria-hidden="true" d="" pointer-events="none" display="none"/></g><g transform="translate(0,13)"><path class="background" aria-hidden="true" d="M0,0h26.5615234375v11h-26.5615234375Z" pointer-events="none" opacity="1"/><g><g class="mark-symbol role-legend-symbol" pointer-events="none"><path transform="translate(6,6)" d="M-5,-5h10v10h-10Z" fill="#f58518" stroke-width="1.5" opacity="1"/></g><g class="mark-text role-legend-label" pointer-events="none"><text text-anchor="start" transform="translate(16,9)" font-family="sans-serif" font-size="10px" fill="#000" opacity="1">y2</text></g></g><path class="foreground" aria-hidden="true" d="" pointer-events="none" display="none"/></g></g></g><path class="foreground" aria-hidden="true" d="" pointer-events="none" display="none"/></g></g><g class="mark-text role-legend-title" pointer-events="none"><text text-anchor="start" transform="translate(0,9)" font-family="sans-serif" font-size="11px" font-weight="bold" fill="#000" opacity="1">Quantities</text></g></g><path class="foreground" aria-hidden="true" d="" pointer-events="none" display="none"/></g></g><g class="mark-group role-title"><g transform="translate(250,-23.743414456510422)"><path class="background" aria-hidden="true" d="M0,0h0v0h0Z" pointer-events="none"/><g><g class="mark-text role-title-text" role="graphics-symbol" aria-roledescription="title" aria-label="Title text 'Bar chart with 2 quantities highlighted'" pointer-events="none"><text text-anchor="middle" transform="translate(0,13)" font-family="sans-serif" font-size="16px" font-weight="bold" fill="#000" opacity="1">Bar chart with 2 quantities highlighted</text></g></g><path class="foreground" aria-hidden="true" d="" pointer-events="none" display="none"/></g></g></g><path class="foreground" aria-hidden="true" d="" display="none"/></g></g></g><defs><clipPath id="clip1"><rect x="0" y="0" width="500" height="400"/></clipPath></defs></svg>